<?xml version="1.0" encoding="UTF-8" standalone="no"?>
<svg
   xmlns:dc="http://purl.org/dc/elements/1.1/"
   xmlns:cc="http://creativecommons.org/ns#"
   xmlns:rdf="http://www.w3.org/1999/02/22-rdf-syntax-ns#"
   xmlns:svg="http://www.w3.org/2000/svg"
   xmlns="http://www.w3.org/2000/svg"
   xmlns:sodipodi="http://sodipodi.sourceforge.net/DTD/sodipodi-0.dtd"
   xmlns:inkscape="http://www.inkscape.org/namespaces/inkscape"
   id="visual"
   viewBox="0 0 1920 500"
   width="100%"
   height="100%"
   version="1.1"
   sodipodi:docname="waves_bottom.svg"
   inkscape:version="0.92.5 (2060ec1f9f, 2020-04-08)">
  <metadata
     id="metadata19">
    <rdf:RDF>
      <cc:Work
         rdf:about="">
        <dc:format>image/svg+xml</dc:format>
        <dc:type
           rdf:resource="http://purl.org/dc/dcmitype/StillImage" />
        <dc:title></dc:title>
      </cc:Work>
    </rdf:RDF>
  </metadata>
  <defs
     id="defs17" />
  <sodipodi:namedview
     pagecolor="#ffffff"
     bordercolor="#666666"
     borderopacity="1"
     objecttolerance="10"
     gridtolerance="10"
     guidetolerance="10"
     inkscape:pageopacity="0"
     inkscape:pageshadow="2"
     inkscape:window-width="1920"
     inkscape:window-height="1012"
     id="namedview15"
     showgrid="false"
     inkscape:zoom="0.4791385"
     inkscape:cx="825.77524"
     inkscape:cy="284.95889"
     inkscape:window-x="1024"
     inkscape:window-y="0"
     inkscape:window-maximized="1"
     inkscape:current-layer="visual" />
  <rect
     x="0"
     y="0"
     width="1920"
     height="500"
     fill="#0d1117"
     id="rect2" />
  <path
     d="M0 106L45.7 105.2C91.3 104.3 182.7 102.7 274.2 95.7C365.7 88.7 457.3 76.3 548.8 74.3C640.3 72.3 731.7 80.7 823 77.2C914.3 73.7 1005.7 58.3 1097 59.2C1188.3 60 1279.7 77 1371.2 95C1462.7 113 1554.3 132 1645.8 128.5C1737.3 125 1828.7 99 1874.3 86L1920 73L1920 501L1874.3 501C1828.7 501 1737.3 501 1645.8 501C1554.3 501 1462.7 501 1371.2 501C1279.7 501 1188.3 501 1097 501C1005.7 501 914.3 501 823 501C731.7 501 640.3 501 548.8 501C457.3 501 365.7 501 274.2 501C182.7 501 91.3 501 45.7 501L0 501Z"
     fill="#fbae3c"
     id="path4" />
  <path
     d="M0 214L45.7 204C91.3 194 182.7 174 274.2 174.8C365.7 175.7 457.3 197.3 548.8 197C640.3 196.7 731.7 174.3 823 173.7C914.3 173 1005.7 194 1097 200.3C1188.3 206.7 1279.7 198.3 1371.2 192C1462.7 185.7 1554.3 181.3 1645.8 182.2C1737.3 183 1828.7 189 1874.3 192L1920 195L1920 501L1874.3 501C1828.7 501 1737.3 501 1645.8 501C1554.3 501 1462.7 501 1371.2 501C1279.7 501 1188.3 501 1097 501C1005.7 501 914.3 501 823 501C731.7 501 640.3 501 548.8 501C457.3 501 365.7 501 274.2 501C182.7 501 91.3 501 45.7 501L0 501Z"
     fill="#ec8c24"
     id="path6"
     style="fill:#e6801c;fill-opacity:1" />
  <path
     d="M0 242L45.7 256.8C91.3 271.7 182.7 301.3 274.2 295.2C365.7 289 457.3 247 548.8 228.3C640.3 209.7 731.7 214.3 823 224C914.3 233.7 1005.7 248.3 1097 249.5C1188.3 250.7 1279.7 238.3 1371.2 233.7C1462.7 229 1554.3 232 1645.8 235.5C1737.3 239 1828.7 243 1874.3 245L1920 247L1920 501L1874.3 501C1828.7 501 1737.3 501 1645.8 501C1554.3 501 1462.7 501 1371.2 501C1279.7 501 1188.3 501 1097 501C1005.7 501 914.3 501 823 501C731.7 501 640.3 501 548.8 501C457.3 501 365.7 501 274.2 501C182.7 501 91.3 501 45.7 501L0 501Z"
     fill="#db690e"
     id="path8"
     style="fill:#cf5003;fill-opacity:1" />
  <path
     d="M0 361L45.7 354.3C91.3 347.7 182.7 334.3 274.2 342.2C365.7 350 457.3 379 548.8 385.7C640.3 392.3 731.7 376.7 823 355.2C914.3 333.7 1005.7 306.3 1097 312.3C1188.3 318.3 1279.7 357.7 1371.2 359.8C1462.7 362 1554.3 327 1645.8 308.2C1737.3 289.3 1828.7 286.7 1874.3 285.3L1920 284L1920 501L1874.3 501C1828.7 501 1737.3 501 1645.8 501C1554.3 501 1462.7 501 1371.2 501C1279.7 501 1188.3 501 1097 501C1005.7 501 914.3 501 823 501C731.7 501 640.3 501 548.8 501C457.3 501 365.7 501 274.2 501C182.7 501 91.3 501 45.7 501L0 501Z"
     fill="#c94200"
     id="path10"
     style="fill:#b60000;fill-opacity:1" />
  <path
     d="m 0,418 45.7,-1.8 c 45.6,-1.9 137,-5.5 228.5,2.5 91.5,8 183.1,27.6 274.6,31.8 91.5,4.2 182.9,-7.2 274.2,-9.3 91.3,-2.2 182.7,4.8 274,-6.9 91.3,-11.6 182.7,-42 274.2,-47.6 91.5,-5.7 183.1,13.3 274.6,19.5 91.5,6.1 182.9,-0.5 228.5,-3.9 L 1920,399 v 102 h -45.7 c -45.6,0 -137,0 -228.5,0 -91.5,0 -183.1,0 -274.6,0 -91.5,0 -182.9,0 -274.2,0 -91.3,0 -182.7,0 -274,0 -91.3,0 -182.7,0 -274.2,0 -91.5,0 -183.1,0 -274.6,0 -91.5,0 -182.9,0 -228.5,0 H 0 Z"
     id="path12"
     inkscape:connector-curvature="0"
     style="fill:#0d1117;fill-opacity:1" />
</svg>
