<svg id="visual" viewBox="0 0 1920 420" width="100%" height="100%" xmlns="http://www.w3.org/2000/svg" xmlns:xlink="http://www.w3.org/1999/xlink" version="1.1">
<rect x="0" y="0" width="1920" height="420" fill="#0d1117"></rect>
<path d="M0 353L53.3 343.5C106.7 334 213.3 315 320 313.3C426.7 311.7 533.3 327.3 640 348.5C746.7 369.7 853.3 396.3 960 402.8C1066.7 409.3 1173.3 395.7 1280 379.3C1386.7 363 1493.3 344 1600 330.5C1706.7 317 1813.3 309 1866.7 305L1920 301L1920 0L1866.7 0C1813.3 0 1706.7 0 1600 0C1493.3 0 1386.7 0 1280 0C1173.3 0 1066.7 0 960 0C853.3 0 746.7 0 640 0C533.3 0 426.7 0 320 0C213.3 0 106.7 0 53.3 0L0 0Z" fill="#fbae3c"></path>
<path d="M0 290L53.3 283.8C106.7 277.7 213.3 265.3 320 251.2C426.7 237 533.3 221 640 222.2C746.7 223.3 853.3 241.7 960 260.5C1066.7 279.3 1173.3 298.7 1280 304.3C1386.7 310 1493.3 302 1600 298.2C1706.7 294.3 1813.3 294.7 1866.7 294.8L1920 295L1920 0L1866.7 0C1813.3 0 1706.7 0 1600 0C1493.3 0 1386.7 0 1280 0C1173.3 0 1066.7 0 960 0C853.3 0 746.7 0 640 0C533.3 0 426.7 0 320 0C213.3 0 106.7 0 53.3 0L0 0Z" fill="#e6801c"></path>
<path d="M0 143L53.3 154.8C106.7 166.7 213.3 190.3 320 189.5C426.7 188.7 533.3 163.3 640 165C746.7 166.7 853.3 195.3 960 206.7C1066.7 218 1173.3 212 1280 216C1386.7 220 1493.3 234 1600 238.2C1706.7 242.3 1813.3 236.7 1866.7 233.8L1920 231L1920 0L1866.7 0C1813.3 0 1706.7 0 1600 0C1493.3 0 1386.7 0 1280 0C1173.3 0 1066.7 0 960 0C853.3 0 746.7 0 640 0C533.3 0 426.7 0 320 0C213.3 0 106.7 0 53.3 0L0 0Z" fill="#cf5003"></path>
<path d="M0 134L53.3 137C106.7 140 213.3 146 320 133.7C426.7 121.3 533.3 90.7 640 80.2C746.7 69.7 853.3 79.3 960 80C1066.7 80.7 1173.3 72.3 1280 72.2C1386.7 72 1493.3 80 1600 87.8C1706.7 95.7 1813.3 103.3 1866.7 107.2L1920 111L1920 0L1866.7 0C1813.3 0 1706.7 0 1600 0C1493.3 0 1386.7 0 1280 0C1173.3 0 1066.7 0 960 0C853.3 0 746.7 0 640 0C533.3 0 426.7 0 320 0C213.3 0 106.7 0 53.3 0L0 0Z" fill="#b60000"></path></svg>